<svg xmlns="http://www.w3.org/2000/svg" width="16" height="16" viewBox="0 0 16 16" fill="none">
    <path
        d="M7.6001 11.325L2.1651 5.80402C2.11225 5.75167 2.07029 5.68937 2.04166 5.62071C2.01303 5.55205 1.99829 5.4784 1.99829 5.40402C1.99829 5.32963 2.01303 5.25598 2.04166 5.18732C2.07029 5.11867 2.11225 5.05636 2.1651 5.00402L2.5001 4.67502C2.55245 4.62217 2.61475 4.58021 2.6834 4.55158C2.75206 4.52295 2.82571 4.50821 2.9001 4.50821C2.97449 4.50821 3.04813 4.52295 3.11679 4.55158C3.18545 4.58021 3.24775 4.62217 3.3001 4.67502L8.0001 9.46902L12.7051 4.67902C12.7574 4.62617 12.8197 4.58421 12.8884 4.55558C12.9571 4.52695 13.0307 4.51221 13.1051 4.51221C13.1795 4.51221 13.2531 4.52695 13.3218 4.55558C13.3904 4.58421 13.4528 4.62617 13.5051 4.67902L13.8381 5.01202C13.8909 5.06436 13.9329 5.12667 13.9615 5.19532C13.9902 5.26398 14.0049 5.33763 14.0049 5.41202C14.0049 5.4864 13.9902 5.56005 13.9615 5.62871C13.9329 5.69737 13.8909 5.75967 13.8381 5.81202L8.4001 11.33C8.29318 11.4351 8.14899 11.4936 7.99907 11.4927C7.84914 11.4917 7.70569 11.4314 7.6001 11.325Z"
        fill="#036362" />
</svg>