<svg xmlns="http://www.w3.org/2000/svg" width="16" height="16" viewBox="0 0 16 16" fill="none">
    <path
        d="M7.6001 4.675L2.1651 10.196C2.11225 10.2483 2.07029 10.3106 2.04166 10.3793C2.01303 10.448 1.99829 10.5216 1.99829 10.596C1.99829 10.6704 2.01303 10.744 2.04166 10.8127C2.07029 10.8813 2.11225 10.9436 2.1651 10.996L2.5001 11.325C2.55245 11.3778 2.61475 11.4198 2.6834 11.4484C2.75206 11.4771 2.82571 11.4918 2.9001 11.4918C2.97449 11.4918 3.04813 11.4771 3.11679 11.4484C3.18545 11.4198 3.24775 11.3778 3.3001 11.325L8.0001 6.53102L12.7051 11.321C12.7574 11.3738 12.8197 11.4158 12.8884 11.4444C12.9571 11.473 13.0307 11.4878 13.1051 11.4878C13.1795 11.4878 13.2531 11.473 13.3218 11.4444C13.3904 11.4158 13.4528 11.3738 13.5051 11.321L13.8381 10.988C13.8909 10.9356 13.9329 10.8733 13.9615 10.8047C13.9902 10.736 14.0049 10.6624 14.0049 10.588C14.0049 10.5136 13.9902 10.44 13.9615 10.3713C13.9329 10.3027 13.8909 10.2404 13.8381 10.188L8.4001 4.67C8.29318 4.56492 8.14899 4.50637 7.99907 4.5073C7.84914 4.50826 7.70569 4.56858 7.6001 4.675Z"
        fill="#036362" />
</svg>
