<svg width="57" height="18" viewBox="0 0 57 18" fill="none" xmlns="http://www.w3.org/2000/svg">
<path d="M11.2852 7.31152V12.3828C11.0859 12.623 10.7783 12.8838 10.3623 13.165C9.94629 13.4404 9.41016 13.6777 8.75391 13.877C8.09766 14.0762 7.30371 14.1758 6.37207 14.1758C5.5459 14.1758 4.79297 14.041 4.11328 13.7715C3.43359 13.4961 2.84766 13.0947 2.35547 12.5674C1.86914 12.04 1.49414 11.3955 1.23047 10.6338C0.966797 9.86621 0.834961 8.99023 0.834961 8.00586V7.20605C0.834961 6.22168 0.960938 5.3457 1.21289 4.57812C1.4707 3.81055 1.83691 3.16309 2.31152 2.63574C2.78613 2.1084 3.35156 1.70703 4.00781 1.43164C4.66406 1.15625 5.39355 1.01855 6.19629 1.01855C7.30957 1.01855 8.22363 1.2002 8.93848 1.56348C9.65332 1.9209 10.1982 2.41895 10.5732 3.05762C10.9541 3.69043 11.1885 4.41699 11.2764 5.2373H8.71875C8.6543 4.80371 8.53125 4.42578 8.34961 4.10352C8.16797 3.78125 7.90723 3.5293 7.56738 3.34766C7.2334 3.16602 6.7998 3.0752 6.2666 3.0752C5.82715 3.0752 5.43457 3.16602 5.08887 3.34766C4.74902 3.52344 4.46191 3.78418 4.22754 4.12988C3.99316 4.47559 3.81445 4.90332 3.69141 5.41309C3.56836 5.92285 3.50684 6.51465 3.50684 7.18848V8.00586C3.50684 8.67383 3.57129 9.26562 3.7002 9.78125C3.8291 10.291 4.01953 10.7217 4.27148 11.0732C4.5293 11.4189 4.8457 11.6797 5.2207 11.8555C5.5957 12.0312 6.03223 12.1191 6.53027 12.1191C6.94629 12.1191 7.29199 12.084 7.56738 12.0137C7.84863 11.9434 8.07422 11.8584 8.24414 11.7588C8.41992 11.6533 8.55469 11.5537 8.64844 11.46V9.19238H6.24023V7.31152H11.2852ZM46.5293 0.5V14H43.9893V0.5H46.5293Z" fill="#4285F4"/>
<path d="M12.8496 9.3418V9.15723C12.8496 8.45996 12.9492 7.81836 13.1484 7.23242C13.3477 6.64062 13.6377 6.12793 14.0186 5.69434C14.3994 5.26074 14.8682 4.92383 15.4248 4.68359C15.9814 4.4375 16.6201 4.31445 17.3408 4.31445C18.0615 4.31445 18.7031 4.4375 19.2656 4.68359C19.8281 4.92383 20.2998 5.26074 20.6807 5.69434C21.0674 6.12793 21.3604 6.64062 21.5596 7.23242C21.7588 7.81836 21.8584 8.45996 21.8584 9.15723V9.3418C21.8584 10.0332 21.7588 10.6748 21.5596 11.2666C21.3604 11.8525 21.0674 12.3652 20.6807 12.8047C20.2998 13.2383 19.8311 13.5752 19.2744 13.8154C18.7178 14.0557 18.0791 14.1758 17.3584 14.1758C16.6377 14.1758 15.9961 14.0557 15.4336 13.8154C14.877 13.5752 14.4053 13.2383 14.0186 12.8047C13.6377 12.3652 13.3477 11.8525 13.1484 11.2666C12.9492 10.6748 12.8496 10.0332 12.8496 9.3418ZM15.3809 9.15723V9.3418C15.3809 9.74023 15.416 10.1123 15.4863 10.458C15.5566 10.8037 15.668 11.1084 15.8203 11.3721C15.9785 11.6299 16.1836 11.832 16.4355 11.9785C16.6875 12.125 16.9951 12.1982 17.3584 12.1982C17.71 12.1982 18.0117 12.125 18.2637 11.9785C18.5156 11.832 18.7178 11.6299 18.8701 11.3721C19.0225 11.1084 19.1338 10.8037 19.2041 10.458C19.2803 10.1123 19.3184 9.74023 19.3184 9.3418V9.15723C19.3184 8.77051 19.2803 8.40723 19.2041 8.06738C19.1338 7.72168 19.0195 7.41699 18.8613 7.15332C18.709 6.88379 18.5068 6.67285 18.2549 6.52051C18.0029 6.36816 17.6982 6.29199 17.3408 6.29199C16.9834 6.29199 16.6787 6.36816 16.4268 6.52051C16.1807 6.67285 15.9785 6.88379 15.8203 7.15332C15.668 7.41699 15.5566 7.72168 15.4863 8.06738C15.416 8.40723 15.3809 8.77051 15.3809 9.15723ZM52.998 14.1758C52.2598 14.1758 51.5977 14.0586 51.0117 13.8242C50.4258 13.584 49.9277 13.2529 49.5176 12.8311C49.1133 12.4092 48.8027 11.9199 48.5859 11.3633C48.3691 10.8008 48.2607 10.2031 48.2607 9.57031V9.21875C48.2607 8.49805 48.3633 7.83887 48.5684 7.24121C48.7734 6.64355 49.0664 6.125 49.4473 5.68555C49.834 5.24609 50.3027 4.90918 50.8535 4.6748C51.4043 4.43457 52.0254 4.31445 52.7168 4.31445C53.3906 4.31445 53.9883 4.42578 54.5098 4.64844C55.0312 4.87109 55.4678 5.1875 55.8193 5.59766C56.1768 6.00781 56.4463 6.5 56.6279 7.07422C56.8096 7.64258 56.9004 8.27539 56.9004 8.97266V10.0273H49.3418V8.33984H54.4131V8.14648C54.4131 7.79492 54.3486 7.48145 54.2197 7.20605C54.0967 6.9248 53.9092 6.70215 53.6572 6.53809C53.4053 6.37402 53.083 6.29199 52.6904 6.29199C52.3564 6.29199 52.0693 6.36523 51.8291 6.51172C51.5889 6.6582 51.3926 6.86328 51.2402 7.12695C51.0938 7.39062 50.9824 7.70117 50.9062 8.05859C50.8359 8.41016 50.8008 8.79688 50.8008 9.21875V9.57031C50.8008 9.95117 50.8535 10.3027 50.959 10.625C51.0703 10.9473 51.2256 11.2256 51.4248 11.46C51.6299 11.6943 51.876 11.876 52.1631 12.0049C52.4561 12.1338 52.7871 12.1982 53.1562 12.1982C53.6133 12.1982 54.0381 12.1104 54.4307 11.9346C54.8291 11.7529 55.1719 11.4805 55.459 11.1172L56.6895 12.4531C56.4902 12.7402 56.2178 13.0156 55.8721 13.2793C55.5322 13.543 55.1221 13.7598 54.6416 13.9297C54.1611 14.0938 53.6133 14.1758 52.998 14.1758Z" fill="#0F9D58"/>
<path d="M23.0098 9.3418V9.15723C23.0098 8.45996 23.1094 7.81836 23.3086 7.23242C23.5078 6.64062 23.7979 6.12793 24.1787 5.69434C24.5596 5.26074 25.0283 4.92383 25.585 4.68359C26.1416 4.4375 26.7803 4.31445 27.501 4.31445C28.2217 4.31445 28.8633 4.4375 29.4258 4.68359C29.9883 4.92383 30.46 5.26074 30.8408 5.69434C31.2275 6.12793 31.5205 6.64062 31.7197 7.23242C31.9189 7.81836 32.0186 8.45996 32.0186 9.15723V9.3418C32.0186 10.0332 31.9189 10.6748 31.7197 11.2666C31.5205 11.8525 31.2275 12.3652 30.8408 12.8047C30.46 13.2383 29.9912 13.5752 29.4346 13.8154C28.8779 14.0557 28.2393 14.1758 27.5186 14.1758C26.7979 14.1758 26.1562 14.0557 25.5938 13.8154C25.0371 13.5752 24.5654 13.2383 24.1787 12.8047C23.7979 12.3652 23.5078 11.8525 23.3086 11.2666C23.1094 10.6748 23.0098 10.0332 23.0098 9.3418ZM25.541 9.15723V9.3418C25.541 9.74023 25.5762 10.1123 25.6465 10.458C25.7168 10.8037 25.8281 11.1084 25.9805 11.3721C26.1387 11.6299 26.3438 11.832 26.5957 11.9785C26.8477 12.125 27.1553 12.1982 27.5186 12.1982C27.8701 12.1982 28.1719 12.125 28.4238 11.9785C28.6758 11.832 28.8779 11.6299 29.0303 11.3721C29.1826 11.1084 29.2939 10.8037 29.3643 10.458C29.4404 10.1123 29.4785 9.74023 29.4785 9.3418V9.15723C29.4785 8.77051 29.4404 8.40723 29.3643 8.06738C29.2939 7.72168 29.1797 7.41699 29.0215 7.15332C28.8691 6.88379 28.667 6.67285 28.415 6.52051C28.1631 6.36816 27.8584 6.29199 27.501 6.29199C27.1436 6.29199 26.8389 6.36816 26.5869 6.52051C26.3408 6.67285 26.1387 6.88379 25.9805 7.15332C25.8281 7.41699 25.7168 7.72168 25.6465 8.06738C25.5762 8.40723 25.541 8.77051 25.541 9.15723Z" fill="#F4B400"/>
<path d="M39.5947 4.49023H41.8887V13.6836C41.8887 14.5508 41.6953 15.2861 41.3086 15.8896C40.9277 16.499 40.3945 16.959 39.709 17.2695C39.0234 17.5859 38.2266 17.7441 37.3184 17.7441C36.9199 17.7441 36.498 17.6914 36.0527 17.5859C35.6133 17.4805 35.1914 17.3164 34.7871 17.0938C34.3887 16.8711 34.0547 16.5898 33.7852 16.25L34.9014 14.7559C35.1943 15.0957 35.5342 15.3594 35.9209 15.5469C36.3076 15.7402 36.7354 15.8369 37.2041 15.8369C37.6611 15.8369 38.0479 15.752 38.3643 15.582C38.6807 15.418 38.9238 15.1748 39.0938 14.8525C39.2637 14.5361 39.3486 14.1523 39.3486 13.7012V6.6875L39.5947 4.49023ZM33.1963 9.35938V9.1748C33.1963 8.44824 33.2842 7.78906 33.46 7.19727C33.6416 6.59961 33.8965 6.08691 34.2246 5.65918C34.5586 5.23145 34.9629 4.90039 35.4375 4.66602C35.9121 4.43164 36.4482 4.31445 37.0459 4.31445C37.6787 4.31445 38.209 4.43164 38.6367 4.66602C39.0645 4.90039 39.416 5.23438 39.6914 5.66797C39.9668 6.0957 40.1807 6.60254 40.333 7.18848C40.4912 7.76855 40.6143 8.4043 40.7021 9.0957V9.5C40.6143 10.1621 40.4824 10.7773 40.3066 11.3457C40.1309 11.9141 39.8994 12.4121 39.6123 12.8398C39.3252 13.2617 38.9678 13.5898 38.54 13.8242C38.1182 14.0586 37.6143 14.1758 37.0283 14.1758C36.4424 14.1758 35.9121 14.0557 35.4375 13.8154C34.9688 13.5752 34.5674 13.2383 34.2334 12.8047C33.8994 12.3711 33.6416 11.8613 33.46 11.2754C33.2842 10.6895 33.1963 10.0508 33.1963 9.35938ZM35.7275 9.1748V9.35938C35.7275 9.75195 35.7656 10.1182 35.8418 10.458C35.918 10.7979 36.0352 11.0996 36.1934 11.3633C36.3574 11.6211 36.5596 11.8232 36.7998 11.9697C37.0459 12.1104 37.3359 12.1807 37.6699 12.1807C38.1328 12.1807 38.5107 12.084 38.8037 11.8906C39.0967 11.6914 39.3164 11.4189 39.4629 11.0732C39.6094 10.7275 39.6943 10.3291 39.7178 9.87793V8.72656C39.7061 8.35742 39.6562 8.02637 39.5684 7.7334C39.4805 7.43457 39.3574 7.17969 39.1992 6.96875C39.041 6.75781 38.8359 6.59375 38.584 6.47656C38.332 6.35938 38.0332 6.30078 37.6875 6.30078C37.3535 6.30078 37.0635 6.37695 36.8174 6.5293C36.5771 6.67578 36.375 6.87793 36.2109 7.13574C36.0527 7.39355 35.9326 7.69824 35.8506 8.0498C35.7686 8.39551 35.7275 8.77051 35.7275 9.1748Z" fill="#DB4437"/>
</svg>
